<svg xmlns="http://www.w3.org/2000/svg" version="1.1" xmlns:xlink="http://www.w3.org/1999/xlink" xmlns:svgjs="http://svgjs.dev/svgjs" width="1000" height="477" viewBox="0 0 1000 477"><g transform="matrix(1,0,0,1,0.05087913425813895,0.15909832004348345)"><svg viewBox="0 0 402 192" data-background-color="#fdf8f1" preserveAspectRatio="xMidYMid meet" height="477" width="1000" xmlns="http://www.w3.org/2000/svg" xmlns:xlink="http://www.w3.org/1999/xlink"><g id="tight-bounds" transform="matrix(1,0,0,1,6.500453411971762,1.7782249979935898)"><svg viewBox="0 0 395.52 130.8977460016815" height="130.8977460016815" width="395.52"><g><svg viewBox="0 0 554.8664374954125 183.63361144855477" height="130.8977460016815" width="395.52"><g><rect width="6.155047473458014" height="183.63361144855477" x="137.07870030086016" y="0" fill="#fa4238" opacity="1" stroke-width="0" stroke="transparent" fill-opacity="1" class="rect-o-0" data-fill-palette-color="primary" rx="1%" id="o-0" data-palette-color="#fa4238"></rect></g><g transform="matrix(1,0,0,1,159.34643749541246,0.4568000284789804)"><svg viewBox="0 0 395.52 182.7200113915968" height="182.7200113915968" width="395.52"><g id="textblocktransform"><svg viewBox="0 0 395.52 182.7200113915968" height="182.7200113915968" width="395.52" id="textblock"><g><svg viewBox="0 0 395.52 147.61722442937204" height="147.61722442937204" width="395.52"><g transform="matrix(1,0,0,1,0,0)"><svg width="395.52" viewBox="4.5 -36.45000076293945 213.54873657226562 76.63115692138672" height="147.61722442937204" data-palette-color="#fa4238"><svg></svg><svg></svg><g class="undefined-text-0" data-fill-palette-color="primary" id="text-0"><path xmlns="http://www.w3.org/2000/svg" d="M4.85-2.4v0c0-1.3 0.027-4.3 0.08-9 0.047-4.7 0.047-8.56 0-11.58-0.053-3.013-0.197-6.087-0.43-9.22v0c0-0.2 0.017-0.4 0.05-0.6v0c-0.033-0.133-0.05-0.25-0.05-0.35v0c0-0.7 0.233-1.3 0.7-1.8 0.467-0.5 1.05-0.75 1.75-0.75v0c9.267-0.167 16.05-0.167 20.35 0v0c0.7 0.033 1.283 0.3 1.75 0.8 0.467 0.5 0.683 1.1 0.65 1.8-0.033 0.7-0.3 1.283-0.8 1.75-0.5 0.467-1.1 0.683-1.8 0.65v0c-4.2-0.167-10.033-0.183-17.5-0.05v0c0.2 3.133 0.317 6.583 0.35 10.35v0c2.2 0 7.15-0.05 14.85-0.15v0c0.7 0 1.3 0.24 1.8 0.72 0.5 0.487 0.75 1.073 0.75 1.76 0 0.68-0.24 1.27-0.72 1.77-0.487 0.5-1.063 0.75-1.73 0.75v0c-7.733 0.1-12.717 0.15-14.95 0.15v0c0 1.1-0.017 3.14-0.05 6.12-0.033 2.987-0.05 5.28-0.05 6.88v0c0 0.7-0.24 1.29-0.72 1.77-0.487 0.487-1.08 0.73-1.78 0.73-0.7 0-1.29-0.243-1.77-0.73-0.487-0.48-0.73-1.07-0.73-1.77zM58.3-0.2v0c-4.5 0.067-11.583 0.017-21.25-0.15v0c-0.667 0-1.24-0.25-1.72-0.75-0.487-0.5-0.73-1.083-0.73-1.75v0c-0.2-0.4-0.3-0.817-0.3-1.25v0c0.067-2.267 0.1-5.533 0.1-9.8 0-4.267 0.017-7.167 0.05-8.7v0c0-0.567-0.017-1.56-0.05-2.98-0.033-1.413-0.033-2.73 0-3.95 0.033-1.213 0.133-2.353 0.3-3.42v0c0.067-0.467 0.267-0.883 0.6-1.25 0.333-0.367 0.733-0.617 1.2-0.75v0c0.433-0.4 0.967-0.617 1.6-0.65v0c2.467-0.067 5.99-0.117 10.57-0.15 4.587-0.033 7.713-0.05 9.38-0.05v0c0.7 0 1.293 0.24 1.78 0.72 0.48 0.487 0.72 1.08 0.72 1.78 0 0.7-0.24 1.29-0.72 1.77-0.487 0.487-1.08 0.73-1.78 0.73v0c-1.767 0-4.74 0.017-8.92 0.05-4.187 0.033-7.413 0.067-9.68 0.1v0c-0.1 0.467-0.123 1.74-0.07 3.82 0.047 2.087 0.07 3.53 0.07 4.33v0 2.05c1.633-0.1 3.373-0.15 5.22-0.15 1.853 0 3.957 0.017 6.31 0.05 2.347 0.033 4.087 0.05 5.22 0.05v0c0.7 0 1.293 0.24 1.78 0.72 0.48 0.487 0.72 1.08 0.72 1.78 0 0.7-0.24 1.29-0.72 1.77-0.487 0.487-1.08 0.73-1.78 0.73v0c-1.167 0-2.927-0.017-5.28-0.05-2.347-0.033-4.437-0.05-6.27-0.05-1.833 0-3.583 0.05-5.25 0.15v0c0 4.733-0.017 8.117-0.05 10.15v0c8.133 0.133 14.417 0.167 18.85 0.1v0c0.7 0 1.3 0.233 1.8 0.7 0.5 0.467 0.75 1.05 0.75 1.75 0 0.7-0.233 1.3-0.7 1.8-0.467 0.5-1.05 0.75-1.75 0.75zM70.4 0.1v0c-0.5 0.033-0.967-0.083-1.4-0.35v0c-0.533-0.167-0.96-0.477-1.28-0.93-0.313-0.447-0.47-0.953-0.47-1.52v0c0-1.067 0.083-6.283 0.25-15.65v0c0.033-1.533-0.017-3.983-0.15-7.35v0c-0.133-3.3-0.15-5.867-0.05-7.7v0c0.033-0.7 0.31-1.283 0.83-1.75 0.513-0.467 1.103-0.683 1.77-0.65v0h0.2c0.3-0.167 0.617-0.267 0.95-0.3v0c1.533-0.133 2.75-0.227 3.65-0.28 0.9-0.047 2.167-0.07 3.8-0.07 1.633 0 3.033 0.107 4.2 0.32 1.167 0.22 2.46 0.58 3.88 1.08 1.413 0.5 2.67 1.15 3.77 1.95v0c2.333 1.7 4.04 3.873 5.12 6.52 1.087 2.653 1.58 5.447 1.48 8.38v0c-0.1 2.833-0.733 5.567-1.9 8.2v0c-1.2 2.6-2.85 4.733-4.95 6.4v0c-2.5 2-5.883 3.167-10.15 3.5v0c-1.267 0.1-2.933 0.15-5 0.15v0c-2.233 0-3.75 0.017-4.55 0.05zM72.3-4.95h2.65c1.967 0 3.5-0.05 4.6-0.15v0c3.033-0.233 5.417-1.033 7.15-2.4v0c1.467-1.167 2.64-2.727 3.52-4.68 0.887-1.947 1.363-4.02 1.43-6.22v0c0.1-2.2-0.233-4.233-1-6.1v0c-0.8-1.9-1.967-3.4-3.5-4.5v0c-1.233-0.9-2.7-1.55-4.4-1.95v0c-1.733-0.4-3.417-0.577-5.05-0.53-1.633 0.053-3.45 0.163-5.45 0.33v0c-0.033 0.967 0 2.717 0.1 5.25v0c0.133 3.633 0.183 6.183 0.15 7.65v0c0 1-0.017 2.39-0.05 4.17-0.033 1.787-0.067 3.43-0.1 4.93-0.033 1.5-0.05 2.9-0.05 4.2zM127.75-1.7l-1-3.6-0.9-2.5c-0.167-0.667-0.4-1.377-0.7-2.13-0.3-0.747-0.617-1.37-0.95-1.87v0c-0.633-0.9-1.54-1.61-2.72-2.13-1.187-0.513-2.997-0.837-5.43-0.97v0c-0.333 0-0.667 0.017-1 0.05v0c-0.333 0-0.99 0.05-1.97 0.15-0.987 0.1-1.697 0.167-2.13 0.2v0c-0.933 0.1-1.633 0.117-2.1 0.05v0c0.067 4.867 0.1 8.833 0.1 11.9v0c0 0.7-0.24 1.29-0.72 1.77-0.487 0.487-1.08 0.73-1.78 0.73-0.7 0-1.293-0.243-1.78-0.73-0.48-0.48-0.72-1.07-0.72-1.77v0c0-3.267-0.04-8.177-0.12-14.73-0.087-6.547-0.13-11.453-0.13-14.72v0c0-0.567 0.183-1.083 0.55-1.55v0c0.1-0.467 0.333-0.867 0.7-1.2 0.367-0.333 0.8-0.533 1.3-0.6v0c1.9-0.3 4.033-0.477 6.4-0.53 2.367-0.047 5.117 0.13 8.25 0.53v0c1.133 0.167 2.193 0.39 3.18 0.67 0.98 0.287 2.013 0.703 3.1 1.25 1.08 0.553 1.997 1.187 2.75 1.9 0.747 0.72 1.353 1.62 1.82 2.7 0.467 1.087 0.667 2.297 0.6 3.63v0c-0.133 3.633-2.233 6.35-6.3 8.15v0c0.867 0.667 1.617 1.467 2.25 2.4v0c0.467 0.7 0.917 1.567 1.35 2.6 0.433 1.033 0.777 1.957 1.03 2.77 0.247 0.82 0.563 1.863 0.95 3.13 0.38 1.267 0.687 2.283 0.92 3.05v0c0.2 0.633 0.133 1.257-0.2 1.87-0.333 0.62-0.823 1.03-1.47 1.23-0.653 0.2-1.29 0.133-1.91-0.2-0.613-0.333-1.02-0.833-1.22-1.5zM108.8-19.75l0.6-0.1c0.233-0.033 0.517-0.05 0.85-0.05v0c0.533-0.033 1.233-0.05 2.1-0.05v0c1.667-0.033 2.733-0.033 3.2 0v0h0.5c2.9-0.2 5.283-0.65 7.15-1.35v0c2.7-0.967 4.083-2.333 4.15-4.1v0c0.1-2.533-2.317-4.217-7.25-5.05v0c-3.4-0.567-7.2-0.633-11.4-0.2v0c0 2.8 0.033 6.433 0.1 10.9zM139.1 0.1v0c-0.7 0.033-1.3-0.193-1.8-0.68-0.5-0.48-0.767-1.063-0.8-1.75-0.033-0.68 0.193-1.27 0.68-1.77 0.48-0.5 1.053-0.767 1.72-0.8v0l1.1-0.05c0-10.367-0.033-18.983-0.1-25.85v0h-0.8c-0.7 0-1.283-0.25-1.75-0.75-0.467-0.5-0.7-1.1-0.7-1.8 0-0.7 0.25-1.283 0.75-1.75 0.5-0.467 1.1-0.7 1.8-0.7v0c1.7 0.033 3.767 0.067 6.2 0.1v0c0.667 0 1.243 0.25 1.73 0.75 0.48 0.5 0.72 1.09 0.72 1.77 0 0.687-0.25 1.27-0.75 1.75-0.5 0.487-1.1 0.73-1.8 0.73v0h-0.4c0.067 6.833 0.1 15.4 0.1 25.7v0h1c0.7 0 1.293 0.24 1.78 0.72 0.48 0.487 0.72 1.08 0.72 1.78 0 0.7-0.24 1.29-0.72 1.77-0.487 0.487-1.08 0.73-1.78 0.73v0c-2.567 0-4.867 0.033-6.9 0.1zM170.25 0.4v0c-1.833 0-3.633-0.233-5.4-0.7-1.767-0.467-3.3-1.117-4.6-1.95v0c-1.467-0.933-2.79-2.25-3.97-3.95-1.187-1.7-2.113-3.56-2.78-5.58-0.667-2.013-1-3.953-1-5.82v0c0-2.5 0.533-4.933 1.6-7.3 1.067-2.367 2.567-4.517 4.5-6.45v0c1.467-1.467 3.117-2.6 4.95-3.4v0c2.167-0.9 4.35-1.35 6.55-1.35v0c1.9 0 3.8 0.367 5.7 1.1v0c1.233 0.467 2.283 1.057 3.15 1.77 0.867 0.72 1.817 1.663 2.85 2.83v0l1.5 1.85c0.4 0.5 0.6 1.017 0.6 1.55v0c0 0.667-0.267 1.25-0.8 1.75-0.533 0.5-1.15 0.75-1.85 0.75v0c-0.7 0-1.317-0.317-1.85-0.95v0l-1.85-2.25c-0.467-0.5-1.017-0.993-1.65-1.48-0.633-0.48-1.267-0.853-1.9-1.12v0c-1.433-0.6-2.867-0.85-4.3-0.75v0c-3.033 0.267-5.583 1.383-7.65 3.35v0c-3.033 2.933-4.55 6.3-4.55 10.1v0c0 2.033 0.543 4.157 1.63 6.37 1.08 2.22 2.353 3.813 3.82 4.78v0c0.9 0.567 1.983 1.017 3.25 1.35 1.267 0.333 2.567 0.5 3.9 0.5v0c4.033 0 6.667-1.117 7.9-3.35v0c0.233-0.4 0.517-1.167 0.85-2.3v0l0.5-1.6c0.2-0.533 0.51-0.95 0.93-1.25 0.413-0.3 0.853-0.45 1.32-0.45v0c0.667 0 1.267 0.233 1.8 0.7 0.533 0.467 0.8 1.067 0.8 1.8v0c0 0.3-0.05 0.6-0.15 0.9v0l-0.35 1.05c-0.567 1.733-1 2.917-1.3 3.55v0c-1.033 1.8-2.483 3.183-4.35 4.15-1.867 0.967-4 1.55-6.4 1.75v0c-0.3 0.033-0.767 0.05-1.4 0.05zM213.6-0.9l-12.7-16.15-5.2 4.3c0.033 3.9 0.117 7.283 0.25 10.15v0c0.033 0.7-0.173 1.307-0.62 1.82-0.453 0.52-1.03 0.797-1.73 0.83-0.7 0.033-1.307-0.177-1.82-0.63-0.52-0.447-0.797-1.02-0.83-1.72v0c-0.1-2-0.167-3.967-0.2-5.9v0c-0.033-2.4-0.05-4.85-0.05-7.35 0-2.5-0.017-4.45-0.05-5.85v0c0-0.867-0.067-2.66-0.2-5.38-0.133-2.713-0.183-4.887-0.15-6.52v0c0-0.7 0.25-1.283 0.75-1.75 0.5-0.467 1.1-0.7 1.8-0.7 0.7 0 1.283 0.25 1.75 0.75 0.467 0.5 0.7 1.1 0.7 1.8v0c-0.033 1.6 0.017 3.733 0.15 6.4 0.133 2.667 0.2 4.433 0.2 5.3v0c0 0.733 0.017 1.517 0.05 2.35v0c5.233-4.367 10.667-9.617 16.3-15.75v0c0.467-0.5 1.05-0.767 1.75-0.8 0.7-0.033 1.3 0.183 1.8 0.65 0.5 0.467 0.767 1.05 0.8 1.75 0.033 0.7-0.183 1.3-0.65 1.8v0c-3.733 4.133-7.417 7.85-11.05 11.15v0l12.85 16.35c0.433 0.533 0.61 1.14 0.53 1.82-0.087 0.687-0.397 1.247-0.93 1.68-0.533 0.433-1.14 0.61-1.82 0.53-0.687-0.087-1.247-0.397-1.68-0.93z" fill="#fa4238" fill-rule="nonzero" stroke="none" stroke-width="1" stroke-linecap="butt" stroke-linejoin="miter" stroke-miterlimit="10" stroke-dasharray="" stroke-dashoffset="0" font-family="none" font-weight="none" font-size="none" text-anchor="none" style="mix-blend-mode: normal" data-fill-palette-color="primary" opacity="1"></path><path xmlns="http://www.w3.org/2000/svg" d="M30.4 40v0c-0.233 0-0.45-0.033-0.65-0.1v0c-0.967 0.167-1.767-0.117-2.4-0.85v0c-0.9-1.1-1.84-2.343-2.82-3.73-0.987-1.38-1.797-2.57-2.43-3.57v0l-2.5-3.95-2.3-3.6c-2.267-3.5-4.867-7.183-7.8-11.05v0c-0.033 2.8 0.027 6.9 0.18 12.3 0.147 5.4 0.22 9.383 0.22 11.95v0c0 0.7-0.24 1.29-0.72 1.77-0.487 0.487-1.08 0.73-1.78 0.73-0.7 0-1.29-0.243-1.77-0.73-0.487-0.48-0.73-1.07-0.73-1.77v0c0-2-0.083-6.527-0.25-13.58-0.167-7.047-0.183-12.47-0.05-16.27v0c0.033-0.5 0.15-1.017 0.35-1.55v0c0.167-0.467 0.5-0.933 1-1.4v0c0.533-0.367 1.15-0.517 1.85-0.45 0.7 0.067 1.267 0.367 1.7 0.9v0c4.733 5.9 8.733 11.383 12 16.45v0l2.05 3.25 2.35 3.7 2.05 3.05c0.167-11.1 0.2-19.383 0.1-24.85v0c0-0.7 0.233-1.3 0.7-1.8 0.467-0.5 1.05-0.75 1.75-0.75 0.7 0 1.3 0.233 1.8 0.7 0.5 0.467 0.75 1.05 0.75 1.75v0c0.067 4.167 0.017 14.5-0.15 31v0c0 0.667-0.25 1.24-0.75 1.72-0.5 0.487-1.083 0.73-1.75 0.73zM66.1 39.65v0c-4.5 0.067-11.583 0.017-21.25-0.15v0c-0.667 0-1.24-0.25-1.72-0.75-0.487-0.5-0.73-1.083-0.73-1.75v0c-0.2-0.4-0.3-0.817-0.3-1.25v0c0.067-2.267 0.1-5.533 0.1-9.8 0-4.267 0.017-7.167 0.05-8.7v0c0-0.567-0.017-1.56-0.05-2.98-0.033-1.413-0.033-2.73 0-3.95 0.033-1.213 0.133-2.353 0.3-3.42v0c0.067-0.467 0.267-0.883 0.6-1.25 0.333-0.367 0.733-0.617 1.2-0.75v0c0.433-0.4 0.967-0.617 1.6-0.65v0c2.467-0.067 5.993-0.117 10.58-0.15 4.58-0.033 7.703-0.05 9.37-0.05v0c0.7 0 1.293 0.24 1.78 0.72 0.48 0.487 0.72 1.08 0.72 1.78 0 0.7-0.24 1.29-0.72 1.77-0.487 0.487-1.08 0.73-1.78 0.73v0c-1.767 0-4.74 0.017-8.92 0.05-4.187 0.033-7.413 0.067-9.68 0.1v0c-0.1 0.467-0.123 1.74-0.07 3.82 0.047 2.087 0.07 3.53 0.07 4.33v0 2.05c1.633-0.1 3.377-0.15 5.23-0.15 1.847 0 3.947 0.017 6.3 0.05 2.347 0.033 4.087 0.05 5.22 0.05v0c0.7 0 1.293 0.24 1.78 0.72 0.48 0.487 0.72 1.08 0.72 1.78 0 0.7-0.24 1.29-0.72 1.77-0.487 0.487-1.08 0.73-1.78 0.73v0c-1.167 0-2.923-0.017-5.27-0.05-2.353-0.033-4.447-0.05-6.28-0.05-1.833 0-3.583 0.05-5.25 0.15v0c0 4.733-0.017 8.117-0.05 10.15v0c8.133 0.133 14.417 0.167 18.85 0.1v0c0.7 0 1.3 0.233 1.8 0.7 0.5 0.467 0.75 1.05 0.75 1.75 0 0.7-0.233 1.3-0.7 1.8-0.467 0.5-1.05 0.75-1.75 0.75zM87.7 37.35v0c0 0.7-0.25 1.283-0.75 1.75-0.5 0.467-1.1 0.7-1.8 0.7-0.7 0-1.283-0.25-1.75-0.75-0.467-0.5-0.7-1.1-0.7-1.8v0c0.033-1.167 0.017-5.883-0.05-14.15v0c-0.033-6.033 0.067-10.7 0.3-14v0c-3.633-0.033-6.7 0-9.2 0.1v0c-0.7 0.033-1.3-0.193-1.8-0.68-0.5-0.48-0.767-1.063-0.8-1.75-0.033-0.68 0.193-1.27 0.68-1.77 0.48-0.5 1.053-0.767 1.72-0.8v0c2.867-0.1 6.85-0.133 11.95-0.1 5.1 0.033 9.083 0.033 11.95 0v0c0.7 0 1.3 0.233 1.8 0.7 0.5 0.467 0.75 1.05 0.75 1.75 0 0.7-0.233 1.3-0.7 1.8-0.467 0.5-1.05 0.75-1.75 0.75v0c-2.367 0.033-5.567 0.05-9.6 0.05v0c-0.233 3.2-0.333 7.833-0.3 13.9v0c0.067 8.3 0.083 13.067 0.05 14.3zM113 40v0c-1.733-0.233-3.317-0.693-4.75-1.38-1.433-0.68-2.65-1.52-3.65-2.52-1-1-1.873-2.133-2.62-3.4-0.753-1.267-1.287-2.593-1.6-3.98-0.32-1.38-0.537-2.803-0.65-4.27-0.12-1.467-0.097-2.883 0.07-4.25v0c0.2-1.733 0.593-3.417 1.18-5.05 0.58-1.633 1.37-3.177 2.37-4.63 1-1.447 2.16-2.677 3.48-3.69 1.313-1.02 2.853-1.763 4.62-2.23 1.767-0.467 3.533-0.733 5.3-0.8v0c0.8-0.033 1.633 0 2.5 0.1v0c1.633 0.2 2.95 0.467 3.95 0.8v0c2.3 0.767 4.21 1.94 5.73 3.52 1.513 1.587 2.603 3.337 3.27 5.25 0.667 1.92 1.01 3.953 1.03 6.1 0.013 2.153-0.237 4.263-0.75 6.33-0.52 2.067-1.313 4.05-2.38 5.95-1.067 1.9-2.467 3.523-4.2 4.87-1.733 1.353-3.723 2.32-5.97 2.9-2.253 0.587-4.563 0.713-6.93 0.38zM113.75 34.9v0c3.1 0.567 5.983-0.083 8.65-1.95v0c2.7-1.867 4.467-4.667 5.3-8.4v0c0.5-2.267 0.617-4.41 0.35-6.43-0.267-2.013-0.967-3.78-2.1-5.3-1.133-1.513-2.5-2.587-4.1-3.22v0c-0.767-0.3-1.373-0.5-1.82-0.6-0.453-0.1-0.997-0.15-1.63-0.15v0c-0.5 0-1.05-0.017-1.65-0.05v0c-0.633-0.033-1.467 0.017-2.5 0.15v0c-1.9 0.233-3.85 1.407-5.85 3.52-2 2.12-3.183 4.88-3.55 8.28v0c-0.267 2.367-0.14 4.583 0.38 6.65 0.513 2.067 1.52 3.733 3.02 5v0c1.467 1.233 3.3 2.067 5.5 2.5z" fill="#fa4238" fill-rule="nonzero" stroke="none" stroke-width="1" stroke-linecap="butt" stroke-linejoin="miter" stroke-miterlimit="10" stroke-dasharray="" stroke-dashoffset="0" font-family="none" font-weight="none" font-size="none" text-anchor="none" style="mix-blend-mode: normal" data-fill-palette-color="primary" opacity="1"></path></g></svg></g></svg></g><g transform="matrix(1,0,0,1,0,163.72991415046633)"><svg viewBox="0 0 232.209792 18.99009724113049" height="18.99009724113049" width="232.209792"><g transform="matrix(1,0,0,1,0,0)"><svg width="232.209792" viewBox="4 -33.25 415.7099914550781 34" height="18.99009724113049" data-palette-color="#fa4238"><path d="M20.9-6.25L20.9-6.25Q20.9 0.75 12.45 0.75 4 0.75 4-6.25L4-6.25 4-10.5 7.5-10.5 7.5-6.05Q7.5-4.25 8.75-3.25 10-2.25 12.45-2.25 14.9-2.25 16.15-3.25 17.4-4.25 17.4-5.98 17.4-7.7 17.03-8.72 16.65-9.75 15.5-10.9L15.5-10.9 6.7-19.5Q5.15-21.05 4.58-22.53 4-24 4-26.25L4-26.25Q4-29.6 6.08-31.43 8.15-33.25 12.35-33.25L12.35-33.25Q20.4-33.25 20.4-26.25L20.4-26.25 20.4-22 16.9-22 16.9-26.45Q16.9-28.25 15.73-29.25 14.55-30.25 12.2-30.25 9.85-30.25 8.68-29.25 7.5-28.25 7.5-26.5 7.5-24.75 7.85-23.75 8.2-22.75 9.4-21.65L9.4-21.65 18.35-13.05Q19.8-11.45 20.35-9.98 20.9-8.5 20.9-6.25ZM46.15-26.25L46.15-26.25 46.15-6.25Q46.15-2.9 44.02-1.07 41.9 0.75 37.67 0.75 33.45 0.75 31.3-1.07 29.15-2.9 29.15-6.25L29.15-6.25 29.15-26.25Q29.15-29.6 31.27-31.43 33.4-33.25 37.62-33.25 41.85-33.25 44-31.43 46.15-29.6 46.15-26.25ZM42.65-6.25L42.65-6.25 42.65-26.25Q42.65-30.25 37.65-30.25 32.65-30.25 32.65-26.25L32.65-26.25 32.65-6.25Q32.65-2.25 37.65-2.25 42.65-2.25 42.65-6.25ZM58.9-15L58.9 0 55.4 0 55.4-32.5 69.15-32.5 69.15-29.5 58.9-29.5 58.9-18 67.15-18 67.15-15 58.9-15ZM75.39-5.75L75.39-32.5 86.39-32.5 86.39-29.5 78.89-29.5 78.89-5.55Q78.89-4.15 79.62-3.2 80.34-2.25 81.67-2.25 82.99-2.25 83.69-3.18 84.39-4.1 84.39-5.55L84.39-5.55 84.39-11.5 87.89-11.5 87.89-5.75Q87.89-2.6 86.22-0.93 84.54 0.75 81.69 0.75 78.84 0.75 77.12-0.93 75.39-2.6 75.39-5.75L75.39-5.75ZM107.14-6.25L107.14-6.25 107.14-32.5 110.64-32.5 110.64-6.25Q110.64-2.25 115.27-2.25 119.89-2.25 119.89-6.25L119.89-6.25 119.89-32.5 123.39-32.5 123.39-6.25Q123.39-2.95 121.29-1.1 119.19 0.75 115.07 0.75 110.94 0.75 108.89-2.15L108.89-2.15Q106.94 0.75 102.77 0.75 98.59 0.75 96.49-1.1 94.39-2.95 94.39-6.25L94.39-6.25 94.39-32.5 97.89-32.5 97.89-6.25Q97.89-2.25 102.52-2.25 107.14-2.25 107.14-6.25ZM148.39-26.25L148.39 0 146.89 0 145.59-3.2Q144.54-1.4 142.84-0.33 141.14 0.75 139.09 0.75L139.09 0.75Q131.89 0.75 131.89-6.25L131.89-6.25 131.89-11.25Q131.89-18.25 139.09-18.25L139.09-18.25 144.89-18.25 144.89-26.45Q144.89-28.25 143.74-29.25 142.59-30.25 140.34-30.25L140.34-30.25Q135.89-30.25 135.89-26.45L135.89-26.45 135.89-23.5 132.39-23.5 132.39-26.25Q132.39-29.6 134.36-31.43 136.34-33.25 140.34-33.25 144.34-33.25 146.36-31.43 148.39-29.6 148.39-26.25L148.39-26.25ZM144.89-7.1L144.89-15.25 139.09-15.25Q136.99-15.25 136.19-14.2 135.39-13.15 135.39-11.25L135.39-11.25 135.39-6.25Q135.39-4.35 136.19-3.3 136.99-2.25 139.09-2.25 141.19-2.25 142.99-3.88 144.79-5.5 144.89-7.1L144.89-7.1ZM161.39-22.85L161.39 0 157.89 0 157.89-32.5 159.39-32.5 160.84-28.8Q162.44-33.25 165.94-33.25L165.94-33.25Q171.89-33.25 171.89-26.75L171.89-26.75 171.89-23.5 168.54-23.5 168.54-26.95Q168.54-30.25 165.79-30.25L165.79-30.25Q164.14-30.25 162.76-28.35 161.39-26.45 161.39-22.85L161.39-22.85ZM190.13-6.25L190.13-6.25 190.13-9 193.63-9 193.63-6.25Q193.63-2.9 191.58-1.07 189.53 0.75 185.43 0.75 181.33 0.75 179.23-1.07 177.13-2.9 177.13-6.25L177.13-6.25 177.13-26.25Q177.13-29.6 179.18-31.43 181.23-33.25 185.33-33.25 189.43-33.25 191.53-31.43 193.63-29.6 193.63-26.25L193.63-26.25 193.63-15.25 180.63-15.25 180.63-6.25Q180.63-2.25 185.38-2.25 190.13-2.25 190.13-6.25ZM180.63-26.25L180.63-26.25 180.63-18.25 190.13-18.25 190.13-26.25Q190.13-30.25 185.38-30.25 180.63-30.25 180.63-26.25ZM222.43 0L222.43 0 214.38 0 214.38-32.5 222.43-32.5Q226.33-32.5 228.35-30.65 230.38-28.8 230.38-25.5L230.38-25.5 230.38-7Q230.38-3.65 228.38-1.83 226.38 0 222.43 0ZM226.88-7L226.88-7 226.88-25.5Q226.88-27.4 225.73-28.45 224.58-29.5 222.43-29.5L222.43-29.5 217.88-29.5 217.88-3 222.43-3Q226.88-3 226.88-7ZM251.88-6.25L251.88-6.25 251.88-9 255.38-9 255.38-6.25Q255.38-2.9 253.33-1.07 251.28 0.75 247.18 0.75 243.08 0.75 240.98-1.07 238.88-2.9 238.88-6.25L238.88-6.25 238.88-26.25Q238.88-29.6 240.93-31.43 242.98-33.25 247.08-33.25 251.18-33.25 253.28-31.43 255.38-29.6 255.38-26.25L255.38-26.25 255.38-15.25 242.38-15.25 242.38-6.25Q242.38-2.25 247.13-2.25 251.88-2.25 251.88-6.25ZM242.38-26.25L242.38-26.25 242.38-18.25 251.88-18.25 251.88-26.25Q251.88-30.25 247.13-30.25 242.38-30.25 242.38-26.25ZM281.57-32.5L274.22 0 268.97 0 261.62-32.5 265.12-32.5 271.57-3.85 278.07-32.5 281.57-32.5ZM300.82-6.25L300.82-6.25 300.82-9 304.32-9 304.32-6.25Q304.32-2.9 302.27-1.07 300.22 0.75 296.12 0.75 292.02 0.75 289.92-1.07 287.82-2.9 287.82-6.25L287.82-6.25 287.82-26.25Q287.82-29.6 289.87-31.43 291.92-33.25 296.02-33.25 300.12-33.25 302.22-31.43 304.32-29.6 304.32-26.25L304.32-26.25 304.32-15.25 291.32-15.25 291.32-6.25Q291.32-2.25 296.07-2.25 300.82-2.25 300.82-6.25ZM291.32-26.25L291.32-26.25 291.32-18.25 300.82-18.25 300.82-26.25Q300.82-30.25 296.07-30.25 291.32-30.25 291.32-26.25ZM326.22 0L313.57 0 313.57-32.5 317.07-32.5 317.07-3 326.22-3 326.22 0ZM348.46-26.25L348.46-26.25 348.46-6.25Q348.46-2.9 346.34-1.07 344.21 0.75 339.99 0.75 335.76 0.75 333.61-1.07 331.46-2.9 331.46-6.25L331.46-6.25 331.46-26.25Q331.46-29.6 333.59-31.43 335.71-33.25 339.94-33.25 344.16-33.25 346.31-31.43 348.46-29.6 348.46-26.25ZM344.96-6.25L344.96-6.25 344.96-26.25Q344.96-30.25 339.96-30.25 334.96-30.25 334.96-26.25L334.96-26.25 334.96-6.25Q334.96-2.25 339.96-2.25 344.96-2.25 344.96-6.25ZM360.71-10L360.71 0 357.21 0 357.21-32.5 364.76-32.5Q368.66-32.5 370.69-30.65 372.71-28.8 372.71-25.5L372.71-25.5 372.71-17Q372.71-13.65 370.71-11.83 368.71-10 364.76-10L364.76-10 360.71-10ZM369.21-17L369.21-17 369.21-25.5Q369.21-27.4 368.06-28.45 366.91-29.5 364.76-29.5L364.76-29.5 360.71-29.5 360.71-13 364.76-13Q369.21-13 369.21-17ZM392.96-6.25L392.96-6.25 392.96-9 396.46-9 396.46-6.25Q396.46-2.9 394.41-1.07 392.36 0.75 388.26 0.75 384.16 0.75 382.06-1.07 379.96-2.9 379.96-6.25L379.96-6.25 379.96-26.25Q379.96-29.6 382.01-31.43 384.06-33.25 388.16-33.25 392.26-33.25 394.36-31.43 396.46-29.6 396.46-26.25L396.46-26.25 396.46-15.25 383.46-15.25 383.46-6.25Q383.46-2.25 388.21-2.25 392.96-2.25 392.96-6.25ZM383.46-26.25L383.46-26.25 383.46-18.25 392.96-18.25 392.96-26.25Q392.96-30.25 388.21-30.25 383.46-30.25 383.46-26.25ZM409.21-22.85L409.21 0 405.71 0 405.71-32.5 407.21-32.5 408.66-28.8Q410.26-33.25 413.76-33.25L413.76-33.25Q419.71-33.25 419.71-26.75L419.71-26.75 419.71-23.5 416.36-23.5 416.36-26.95Q416.36-30.25 413.61-30.25L413.61-30.25Q411.96-30.25 410.58-28.35 409.21-26.45 409.21-22.85L409.21-22.85Z" opacity="1" transform="matrix(1,0,0,1,0,0)" fill="#fa4238" class="undefined-text-1" data-fill-palette-color="secondary" id="text-1"></path></svg></g></svg></g></svg></g></svg></g><g transform="matrix(1,0,0,1,0,0.4568000284789804)"><svg viewBox="0 0 120.96601057976589 182.7200113915968" height="182.7200113915968" width="120.96601057976589"><g><svg xmlns="http://www.w3.org/2000/svg" xmlns:xlink="http://www.w3.org/1999/xlink" version="1.1" x="0" y="0" viewBox="24.761856079101562 5 59.5826416015625 90" enable-background="new 0 0 100 100" xml:space="preserve" height="182.7200113915968" width="120.96601057976589" class="icon-icon-0" data-fill-palette-color="accent" id="icon-0"><g fill="#fa4238" data-fill-palette-color="accent"><path d="M73.76 35.603C86.875 48 91.5 66.25 65.633 82.379c3.64-4.928 5.654-9.794 6.096-14.669 0.951-10.516-5.606-19.072-12.835-26.752C48.298 29.7 47.51 18.84 56.413 6.782 54.578 22.641 64.6 26.944 73.76 35.603zM45.288 93.716c6.184-13.053 7.276-20.302-8.197-34.939-4.204-3.977-7.451-8.029-9.71-12.086-2.881 6.435-5.164 20.081 3.244 27.935C36.312 79.938 44.125 83.125 45.288 93.716zM56.709 43.014C48.183 33.954 41.999 21.253 54 5 21.497 17.692 19.625 38.125 39.151 56.597 55.603 72.158 54.75 80.75 48 95 79.875 71.5 68.709 55.764 56.709 43.014z" fill="#fa4238" data-fill-palette-color="accent"></path></g><g display="none" fill="#fa4238" data-fill-palette-color="accent"><path display="inline" d="M54 5C16.75 17.5 14.875 56.5 26.75 70.762c10.558 12.68 15.407 7.949 19.675 20.824" fill="#fa4238" data-fill-palette-color="accent"></path><line display="inline" x1="56.988" y1="5.261" x2="45.528" y2="136.262" fill="#fa4238" data-fill-palette-color="accent"></line><line display="inline" x1="54.131" y1="3.502" x2="42.67" y2="134.502" fill="#fa4238" data-fill-palette-color="accent"></line><path display="inline" d="M42.875 76" fill="#fa4238" data-fill-palette-color="accent"></path></g></svg></g></svg></g></svg></g><defs></defs></svg><rect width="395.52" height="130.8977460016815" fill="none" stroke="none" visibility="hidden"></rect></g></svg></g></svg>